<!-- Generator: Adobe Illustrator 24.0.1, SVG Export Plug-In  -->
<svg version="1.1" xmlns="http://www.w3.org/2000/svg" xmlns:xlink="http://www.w3.org/1999/xlink" x="0px" y="0px"
	 width="411.062px" height="763.749px" viewBox="0 0 411.062 763.749" style="enable-background:new 0 0 411.062 763.749;"
	 xml:space="preserve">
<style type="text/css">
	.st0{fill:#FFFFFF;}
	.st1{fill:none;stroke:#9FA0A0;stroke-width:0.75;stroke-miterlimit:10;}
	.st2{fill:#DDBD41;}
	.st3{fill:#C30D23;}
	.st4{fill:none;stroke:#9FA0A0;stroke-miterlimit:10;}
	.st5{fill:none;}
	.st6{fill:none;stroke:#FFFFFF;stroke-miterlimit:10;}
	.st7{fill:none;stroke:#F9D54A;stroke-width:2;stroke-miterlimit:10;}
	.st8{fill:none;stroke:#F9D54A;stroke-width:0.75;stroke-miterlimit:10;}
	.st9{fill:none;stroke:#F9D54A;stroke-width:0.75;stroke-miterlimit:10;stroke-dasharray:0.8;}
	.st10{fill:#FEFFFF;}
	.st11{fill:#595959;}
	.st12{fill:#737373;}
	.st13{fill:#D1D1D1;}
	.st14{opacity:0.8;fill:#DEDEDE;}
	.st15{fill:#E9E9E9;}
	.st16{fill:#ECEDEC;}
	.st17{fill:#F2F3F2;}
</style>
<defs>
</defs>
<rect width="411.062" height="54.014"/>
<rect y="611.349" width="411.062" height="152.4"/>
<circle class="st0" cx="205.531" cy="704.3" r="36.078"/>
<line class="st1" x1="136.009" y1="54.014" x2="136.009" y2="611.349"/>
<line class="st1" x1="276.038" y1="54.014" x2="276.038" y2="611.349"/>
<line class="st1" x1="411.062" y1="238.288" x2="0" y2="238.288"/>
<line class="st1" x1="411.062" y1="423.819" x2="0" y2="423.819"/>
<g>
	<g>
		<path class="st2" d="M188.823,641.83c0,0.772,0.303,0.965,0.993,1.117c0.455,0.068,1.255,0.124,1.973,0.124
			c1.462,0,3.503-0.124,4.662-0.428v0.813c-1.131,0.166-3.187,0.29-4.69,0.29c-0.771,0-1.586-0.027-2.138-0.124
			c-0.979-0.18-1.503-0.552-1.503-1.642v-7.628c0-0.345-0.028-0.662-0.083-0.938h0.841c-0.027,0.276-0.055,0.552-0.055,0.938v3.421
			c1.6-0.373,3.959-1.09,5.518-1.766c0.387-0.18,0.744-0.358,1.049-0.565l0.33,0.73c-0.316,0.139-0.73,0.331-1.117,0.483
			c-1.655,0.689-4.152,1.421-5.779,1.848V641.83z M195.816,635.181c-0.262-0.552-0.759-1.393-1.131-1.903l0.524-0.234
			c0.345,0.497,0.855,1.311,1.145,1.89L195.816,635.181z M196.658,632.532c0.358,0.497,0.91,1.353,1.173,1.876l-0.524,0.249
			c-0.317-0.607-0.772-1.38-1.159-1.891L196.658,632.532z"/>
		<path class="st2" d="M210.192,637.236c0.289,0,0.648-0.014,0.966-0.056v0.745c-0.276-0.014-0.662-0.027-0.966-0.027h-3.986
			c-0.027,1.518-0.221,2.855-0.801,3.917c-0.51,0.897-1.53,1.849-2.676,2.428l-0.662-0.496c1.117-0.482,2.125-1.283,2.662-2.193
			c0.635-1.034,0.731-2.262,0.76-3.655h-4.318c-0.428,0-0.758,0.014-1.131,0.041v-0.759c0.358,0.028,0.703,0.056,1.131,0.056
			H210.192z M202.841,634.478c-0.441,0-0.814,0.014-1.132,0.041v-0.772c0.358,0.042,0.676,0.069,1.104,0.069h4.938
			c0.345,0,0.8-0.014,1.158-0.069v0.772c-0.358-0.027-0.813-0.041-1.158-0.041H202.841z M210.179,634.657
			c-0.262-0.552-0.759-1.38-1.131-1.904l0.523-0.234c0.346,0.497,0.842,1.311,1.146,1.89L210.179,634.657z M211.007,632.009
			c0.372,0.51,0.91,1.352,1.186,1.876l-0.538,0.248c-0.304-0.607-0.759-1.366-1.158-1.89L211.007,632.009z"/>
		<path class="st2" d="M223.575,635.54c0.316,0,0.786-0.042,1.034-0.069v0.772c-0.262-0.014-0.703-0.041-1.021-0.041h-2.441
			c0.027,2.11,0.082,5.104,0.082,6.759c0,0.635-0.386,0.938-1.09,0.938c-0.62,0-1.476-0.041-2.096-0.082l-0.056-0.745
			c0.676,0.11,1.462,0.165,2.015,0.165c0.413,0,0.537-0.179,0.537-0.538c0-1.199-0.027-3.696-0.055-5.738
			c-1.117,1.628-3.628,4.056-6.276,5.463l-0.511-0.579c2.869-1.421,5.436-3.932,6.511-5.642h-5.021
			c-0.441,0-0.718,0.027-1.131,0.055v-0.786c0.413,0.041,0.73,0.069,1.131,0.069h5.283c-0.014-0.718-0.027-1.27-0.042-1.545
			c-0.014-0.29-0.027-0.662-0.11-1.008h0.869c-0.041,0.346-0.068,0.662-0.068,1.008c0,0.275,0.014,0.827,0.014,1.545H223.575z"/>
	</g>
</g>
<g>
	<g>
		<path class="st0" d="M136.884,634.478c-0.069,0.097-0.207,0.331-0.248,0.455c-0.483,1.241-1.421,2.979-2.414,4.193
			c1.503,1.297,3.172,3.09,4.124,4.221l-0.593,0.524c-0.938-1.187-2.538-2.952-3.986-4.221c-1.518,1.628-3.38,3.173-5.518,4.124
			l-0.552-0.593c2.221-0.883,4.207-2.511,5.696-4.18c0.952-1.076,2.056-2.869,2.428-4.11h-5.779c-0.441,0-1.187,0.055-1.256,0.055
			v-0.813c0.083,0.014,0.828,0.069,1.256,0.069h5.586c0.359,0,0.621-0.028,0.801-0.083L136.884,634.478z"/>
		<path class="st0" d="M151.314,642.119c0,0.387,0.014,1.311,0.027,1.518h-0.772c0.014-0.138,0.014-0.469,0.028-0.813h-8.056
			c0.014,0.316,0.014,0.662,0.027,0.813h-0.759c0.014-0.234,0.027-1.131,0.027-1.504v-6.842c0-0.262,0-0.606-0.014-0.91
			c0.524,0.027,0.8,0.027,1.104,0.027h7.283c0.276,0,0.759,0,1.131-0.027c-0.027,0.304-0.027,0.621-0.027,0.91V642.119z
			 M142.542,635.099v7.049h8.056v-7.049H142.542z"/>
		<path class="st0" d="M154.655,637.912c0.358,0.027,0.938,0.056,1.752,0.056h7.642c0.717,0,1.131-0.028,1.407-0.056v0.855
			c-0.249-0.014-0.759-0.042-1.394-0.042h-7.655c-0.759,0-1.38,0.015-1.752,0.042V637.912z"/>
	</g>
</g>
<g>
	<g>
		<path class="st0" d="M264.587,641.402h-2.966c-0.248,1.724-0.51,2.538-0.896,2.896c-0.275,0.248-0.552,0.331-1.007,0.345
			c-0.428,0.014-1.324,0-2.221-0.068c-0.027-0.18-0.097-0.441-0.221-0.635c0.979,0.097,1.932,0.11,2.248,0.11
			c0.331,0,0.511-0.014,0.648-0.166c0.317-0.262,0.565-0.979,0.786-2.482h-8.579v-0.635h8.662c0.083-0.552,0.152-1.2,0.221-1.945
			h-5.917l-0.139,0.497l-0.676-0.083c0.414-1.379,0.952-3.752,1.283-5.448l0.662,0.082c-0.11,0.553-0.234,1.173-0.387,1.794h6.304
			v0.606h-6.441c-0.151,0.676-0.304,1.352-0.455,1.945h6.483c0,0-0.014,0.248-0.042,0.345c-0.082,0.855-0.151,1.572-0.234,2.207
			h2.883V641.402z M253.414,635.761h-0.648v-2.801h11.408v2.801h-0.662v-2.166h-10.098V635.761z"/>
		<path class="st0" d="M278.08,642.036H265.9v-0.593h12.18V642.036z M270.603,642.851c-1.09,0.703-2.827,1.407-4.193,1.807
			c-0.11-0.124-0.317-0.345-0.455-0.482c1.38-0.387,3.117-1.076,4.015-1.683L270.603,642.851z M271.625,633.995H266.3v-0.607h5.325
			v-1.255h0.676v1.255h5.394v0.607h-5.394v1.104h3.931v5.379h-8.221v-5.379h3.614V633.995z M275.569,635.622h-6.91v1.076h6.91
			V635.622z M275.569,637.209h-6.91v1.117h6.91V637.209z M275.569,638.837h-6.91v1.117h6.91V638.837z M273.873,642.506
			c1.559,0.524,3.2,1.2,4.234,1.696l-0.538,0.469c-0.979-0.51-2.552-1.172-4.124-1.737L273.873,642.506z"/>
	</g>
</g>
<g>
	<g>
		<path class="st0" d="M310.966,638.505c-0.518,1.159-1.691,2.897-2.423,3.752l-0.581-0.428c0.846-0.828,1.956-2.538,2.436-3.628
			L310.966,638.505z M313.565,636.285v6.842c0,0.676-0.253,0.979-0.947,0.979c-0.441,0-1.198-0.041-1.64-0.083l-0.051-0.745
			c0.556,0.11,1.148,0.166,1.489,0.166c0.354,0,0.505-0.179,0.505-0.552v-6.607h-3.686c-0.391,0-0.668,0.014-0.983,0.041v-0.772
			c0.327,0.041,0.58,0.069,0.971,0.069h3.698v-1.614c0-0.276-0.038-0.662-0.076-0.855h0.77c-0.025,0.193-0.05,0.593-0.05,0.855
			v1.614h3.57c0.266,0,0.606-0.028,0.909-0.069v0.759c-0.303-0.027-0.618-0.027-0.896-0.027H313.565z M316.152,638.243
			c0.693,0.883,1.69,2.593,2.195,3.586l-0.605,0.373c-0.479-1.021-1.451-2.759-2.146-3.642L316.152,638.243z M315.95,633.54
			c0-0.814,0.593-1.476,1.338-1.476c0.731,0,1.337,0.662,1.337,1.476c0,0.8-0.605,1.448-1.337,1.448
			C316.543,634.988,315.95,634.34,315.95,633.54z M316.404,633.54c0,0.524,0.392,0.952,0.884,0.952c0.479,0,0.883-0.427,0.883-0.952
			c0-0.538-0.403-0.966-0.883-0.966C316.796,632.574,316.404,633.002,316.404,633.54z"/>
		<path class="st0" d="M320.771,637.912c0.328,0.028,0.857,0.055,1.603,0.055h6.99c0.656,0,1.035-0.027,1.287-0.055v0.855
			c-0.227-0.014-0.693-0.042-1.274-0.042h-7.003c-0.694,0-1.263,0.014-1.603,0.042V637.912z"/>
		<path class="st0" d="M342.033,639.857c-1.4-0.842-3.785-1.835-5.186-2.303l0.013,4.924c0,0.469,0.012,1.076,0.062,1.462h-0.782
			c0.051-0.372,0.063-0.966,0.063-1.462v-8.069c0-0.331-0.025-0.911-0.076-1.311h0.795c-0.038,0.386-0.075,0.979-0.075,1.311v2.386
			c1.652,0.552,4.013,1.545,5.464,2.331L342.033,639.857z"/>
		<path class="st0" d="M347.144,643.264c0.063-0.152,0.089-0.303,0.089-0.552v-8.125c0-0.276-0.038-0.869-0.076-1.076h0.808
			c-0.037,0.235-0.075,0.745-0.075,1.062v8.221c2.625-0.69,5.615-2.538,7.154-4.787l0.379,0.607c-1.59,2.207-4.177,3.931-7.42,4.897
			c-0.113,0.041-0.265,0.083-0.403,0.166L347.144,643.264z"/>
		<path class="st0" d="M357.871,637.912c0.328,0.028,0.857,0.055,1.603,0.055h6.99c0.656,0,1.035-0.027,1.287-0.055v0.855
			c-0.227-0.014-0.693-0.042-1.274-0.042h-7.003c-0.694,0-1.263,0.014-1.603,0.042V637.912z"/>
		<path class="st0" d="M379.134,639.857c-1.4-0.842-3.785-1.835-5.186-2.303l0.013,4.924c0,0.469,0.012,1.076,0.062,1.462h-0.782
			c0.051-0.372,0.063-0.966,0.063-1.462v-8.069c0-0.331-0.025-0.911-0.076-1.311h0.795c-0.038,0.386-0.075,0.979-0.075,1.311v2.386
			c1.652,0.552,4.013,1.545,5.464,2.331L379.134,639.857z"/>
	</g>
</g>
<g>
	<g>
		<path class="st0" d="M39.154,634.781c-0.07,0.151-0.164,0.441-0.199,0.579c-0.316,1.311-0.938,2.938-1.781,4.317
			c0.457,0.331,0.855,0.648,1.148,0.896l-0.41,0.621c-0.27-0.263-0.668-0.579-1.113-0.938c-1.043,1.477-2.578,2.883-4.758,3.821
			l-0.539-0.565c2.004-0.689,3.691-2.139,4.781-3.642c-0.984-0.745-2.109-1.518-2.789-1.959l0.375-0.511
			c0.703,0.428,1.805,1.173,2.789,1.891c0.809-1.297,1.418-2.883,1.688-4.111h-4.359c-0.703,1.2-1.723,2.538-3.105,3.642
			l-0.504-0.455c2.004-1.448,3.281-3.614,3.773-4.91c0.094-0.193,0.234-0.607,0.281-0.896l0.691,0.275
			c-0.141,0.276-0.293,0.648-0.398,0.883c-0.105,0.248-0.234,0.524-0.387,0.813h3.668c0.293,0,0.48-0.041,0.621-0.109
			L39.154,634.781z"/>
		<path class="st0" d="M50.526,633.622c-0.75,0.896-1.945,2.097-3.176,3.008v6.055c0,0.455,0.023,1.035,0.059,1.27h-0.727
			c0.023-0.234,0.047-0.814,0.047-1.27v-5.628c-1.254,0.842-2.965,1.711-4.617,2.304l-0.352-0.703
			c1.91-0.565,3.891-1.614,5.191-2.552c1.184-0.869,2.426-2.083,3.07-3.035L50.526,633.622z"/>
		<path class="st0" d="M62.273,644.009c-0.152-0.496-0.398-1.172-0.703-1.89c-1.746,0.249-5.895,0.814-7.512,0.979
			c-0.293,0.027-0.574,0.069-0.902,0.124l-0.117-0.827c0.328,0.014,0.656,0,0.984-0.027c0.211-0.015,0.457-0.042,0.738-0.069
			c0.609-1.738,1.934-6.594,2.262-7.891c0.129-0.606,0.176-0.868,0.199-1.172l0.762,0.192c-0.094,0.29-0.199,0.553-0.352,1.118
			c-0.316,1.255-1.617,6-2.191,7.683c1.898-0.193,4.559-0.552,5.848-0.759c-0.504-1.145-1.09-2.317-1.547-3.021l0.551-0.304
			c0.809,1.366,2.145,4.18,2.602,5.531L62.273,644.009z"/>
		<path class="st0" d="M73.692,636.96c-0.047,0.097-0.105,0.235-0.129,0.317c-0.27,1.366-0.809,2.842-1.688,3.973
			c-1.254,1.601-2.707,2.331-4.195,2.814l-0.469-0.635c1.594-0.372,3.105-1.269,4.16-2.593c0.762-0.952,1.289-2.304,1.5-3.449
			h-6.551c-0.27,0-0.633,0.014-1.008,0.042v-0.786c0.375,0.055,0.727,0.082,1.008,0.082h6.398c0.199,0,0.41-0.027,0.527-0.082
			L73.692,636.96z M66.345,633.554c0.293,0.041,0.586,0.055,0.949,0.055h4.676c0.363,0,0.68-0.014,0.938-0.055v0.758
			c-0.258-0.027-0.574-0.027-0.949-0.027h-4.664c-0.34,0-0.645,0.014-0.949,0.027V633.554z"/>
		<path class="st0" d="M83.95,634.395c0.07,0,0.152,0,0.223,0c-0.059-0.165-0.082-0.345-0.082-0.538
			c0-0.827,0.551-1.489,1.254-1.489c0.691,0,1.266,0.662,1.266,1.489c0,0.814-0.574,1.477-1.266,1.477
			c-0.223,0-0.422-0.069-0.598-0.18l-0.012,0.056c-0.246,1.517-0.844,3.779-1.734,5.131c-1.078,1.601-2.379,2.814-4.559,3.614
			l-0.516-0.662c2.238-0.689,3.551-1.849,4.559-3.38c0.855-1.311,1.465-3.435,1.629-4.842h-6.316c-0.422,0-0.727,0.015-1.031,0.042
			v-0.801c0.305,0.042,0.656,0.083,1.043,0.083H83.95z M86.177,633.857c0-0.537-0.375-0.993-0.832-0.993s-0.832,0.456-0.832,0.993
			c0,0.538,0.375,0.966,0.832,0.966S86.177,634.395,86.177,633.857z"/>
		<path class="st0" d="M95.698,634.478c-0.059,0.097-0.176,0.331-0.211,0.455c-0.41,1.241-1.207,2.979-2.051,4.193
			c1.277,1.297,2.695,3.09,3.504,4.221l-0.504,0.524c-0.797-1.187-2.156-2.952-3.387-4.221c-1.289,1.628-2.871,3.173-4.688,4.124
			l-0.469-0.593c1.887-0.883,3.574-2.511,4.84-4.18c0.809-1.076,1.746-2.869,2.062-4.11h-4.91c-0.375,0-1.008,0.055-1.066,0.055
			v-0.813c0.07,0.014,0.703,0.069,1.066,0.069h4.746c0.305,0,0.527-0.028,0.68-0.083L95.698,634.478z"/>
	</g>
</g>
<circle cx="205.531" cy="704.3" r="30.21"/>
<circle class="st3" cx="205.531" cy="704.3" r="27.621"/>
<path class="st4" d="M392.082,718.478h-34.6c-0.589,0-1.067-0.478-1.067-1.067v-21.457c0-0.589,0.478-1.067,1.067-1.067h34.6
	c0.589,0,1.067,0.478,1.067,1.067v21.457C393.148,718.001,392.671,718.478,392.082,718.478z"/>
<line class="st4" x1="359.839" y1="692.186" x2="363.083" y2="692.186"/>
<line class="st4" x1="365.217" y1="694.888" x2="369.37" y2="689.929"/>
<line class="st4" x1="384.433" y1="694.888" x2="380.156" y2="689.929"/>
<line class="st4" x1="369.37" y1="689.929" x2="380.156" y2="689.929"/>
<g>
	<path class="st5" d="M374.782,699.335c-1.398,0-2.699,0.418-3.79,1.13l0.902,1.203l-0.902-1.203
		c-1.045,0.682-1.893,1.637-2.449,2.763l2.369,2.607h-3.068c-0.01,0.153-0.023,0.306-0.023,0.462c0,3.839,3.123,6.962,6.962,6.962
		c1.679,0,3.221-0.598,4.425-1.591l-0.453-0.76l0.453,0.76c0.891-0.736,1.593-1.691,2.031-2.779l-2.776-3.054h3.258
		C381.481,702.211,378.465,699.335,374.782,699.335z"/>
	<path class="st0" d="M374.782,699.335c3.683,0,6.699,2.877,6.939,6.5h1c-0.241-4.175-3.704-7.5-7.938-7.5
		c-1.623,0-3.133,0.49-4.393,1.327l0.602,0.803C372.083,699.753,373.384,699.335,374.782,699.335z"/>
	<path class="st0" d="M374.782,713.258c-3.839,0-6.962-3.123-6.962-6.962c0-0.156,0.013-0.309,0.023-0.462h-1
		c-0.009,0.154-0.023,0.306-0.023,0.462c0,4.391,3.571,7.962,7.962,7.962c1.866,0,3.581-0.65,4.939-1.729l-0.514-0.863
		C378.003,712.661,376.461,713.258,374.782,713.258z"/>
	<path class="st0" d="M367.357,701.923l-3.555,3.911h3.042c0.071-1.227,0.414-2.381,0.98-3.398L367.357,701.923z"/>
	<path class="st0" d="M368.542,703.228c-0.393,0.796-0.637,1.676-0.699,2.607h3.068L368.542,703.228z"/>
	<path class="st0" d="M368.542,703.228l-0.719-0.791c-0.566,1.017-0.909,2.171-0.98,3.398h1
		C367.905,704.904,368.149,704.024,368.542,703.228z"/>
	<path class="st0" d="M385.573,705.835h-2.852c0.009,0.154,0.023,0.306,0.023,0.462c0,1.217-0.282,2.366-0.772,3.398l0.046,0.051
		L385.573,705.835z"/>
	<path class="st0" d="M381.238,708.888c0.323-0.802,0.506-1.675,0.506-2.592c0-0.156-0.013-0.309-0.023-0.462h-3.258
		L381.238,708.888z"/>
	<path class="st0" d="M382.72,705.835h-1c0.01,0.153,0.023,0.306,0.023,0.462c0,0.916-0.182,1.79-0.506,2.592l0.733,0.807
		c0.49-1.032,0.772-2.182,0.772-3.398C382.744,706.141,382.729,705.988,382.72,705.835z"/>
</g>
<g>
	<path class="st0" d="M203.262,574.228h-1.566v-7.204c-0.31,0.31-1.106,0.69-1.903,0.797v-1.363c0.752-0.106,1.682-0.682,2.08-1.08
		h1.39V574.228z"/>
</g>
<g>
	<g>
		<path d="M212.272,572.835l-0.336,0.344l-2.118-2.117l-2.11,2.117l-0.336-0.344l2.11-2.11l-2.11-2.109l0.336-0.344l2.11,2.117
			l2.118-2.117l0.336,0.336l-2.11,2.117L212.272,572.835z"/>
		<polygon class="st0" points="207.707,573.534 207.021,572.833 209.128,570.724 207.021,568.617 207.707,567.916 209.819,570.035 
			211.936,567.918 212.626,568.607 210.516,570.724 212.624,572.833 211.938,573.534 209.819,571.415 		"/>
	</g>
</g>
<circle class="st6" cx="205.649" cy="570.053" r="17.641"/>
<g>
	<path class="st0" d="M26.019,27.139c0.176-0.205,0.317-0.414,0.201-0.734c-0.122-0.337-0.354-0.379-0.629-0.368
		c-0.398,0.016-0.797,0.017-1.196,0.024c-1.09,0.02-2.181,0.04-3.324,0.061c0.057-0.196,0.098-0.344,0.143-0.49
		c0.663-2.182,1.324-4.365,1.992-6.545c0.104-0.339,0.111-0.632-0.189-0.839c-0.281-0.193-0.513-0.076-0.721,0.166
		c-1.498,1.736-2.996,3.472-4.494,5.207l6.011,6.082C24.548,28.849,25.284,27.994,26.019,27.139z"/>
	<path class="st0" d="M13.2,28.955c-0.182,0.211-0.289,0.433-0.173,0.743c0.118,0.313,0.331,0.365,0.596,0.359
		c1.363-0.03,2.726-0.052,4.09-0.077c0.136-0.003,0.272-0.005,0.45-0.008c-0.053,0.195-0.087,0.331-0.127,0.465
		c-0.659,2.168-1.32,4.336-1.978,6.504c-0.173,0.572-0.134,0.687,0.308,1.004c0.103-0.002,0.206-0.004,0.309-0.006
		c0.149-0.156,0.305-0.304,0.447-0.468c1.578-1.827,3.154-3.655,4.729-5.484L15.836,25.9C14.957,26.918,14.079,27.937,13.2,28.955z"
		/>
	<polygon class="st0" points="28.756,37.551 29.111,37.2 28.756,37.551 	"/>
	<path class="st0" d="M26.313,33.657c-1.735-1.755-4.507-4.56-6.16-6.233c-1.653-1.673-4.337-4.389-5.965-6.035
		s-3.038-2.914-3.136-2.818c-0.098,0.097-0.258,0.255-0.356,0.351s1.166,1.536,2.809,3.198c1.642,1.662,4.339,4.391,5.993,6.064
		c1.654,1.673,4.413,4.466,6.132,6.205s3.206,3.084,3.303,2.987s0.258-0.255,0.356-0.351S28.047,35.412,26.313,33.657z"/>
</g>
<circle class="st7" cx="142.727" cy="27.685" r="3.139"/>
<circle class="st8" cx="142.727" cy="27.685" r="7.932"/>
<circle class="st9" cx="142.727" cy="27.685" r="11.95"/>
<g>
	<path class="st0" d="M265.501,16.657v0.75c5.576,0.2,10.054,4.786,10.054,10.41c0,5.75-4.679,10.429-10.429,10.429
		s-10.429-4.679-10.429-10.429c0-2.866,1.163-5.465,3.041-7.352l-0.523-0.538c-2.018,2.023-3.268,4.813-3.268,7.89
		c0,6.164,5.015,11.179,11.179,11.179s11.179-5.015,11.179-11.179C276.305,21.779,271.491,16.857,265.501,16.657z"/>
	<path class="st0" d="M264.751,17.407v5.149h0.75v-5.149c-0.125-0.005-0.248-0.019-0.375-0.019S264.876,17.403,264.751,17.407z"/>
	<path class="st0" d="M265.126,17.388c0.127,0,0.25,0.014,0.375,0.019v-0.75c-0.126-0.004-0.248-0.019-0.375-0.019
		s-0.249,0.015-0.375,0.019v0.75C264.876,17.403,264.999,17.388,265.126,17.388z"/>
</g>
<path class="st10" d="M265.804,26.273c-0.012-0.013-0.016-0.03-0.032-0.04l-0.091-0.057c-0.061-0.043-0.123-0.08-0.186-0.117
	l-5.523-3.473c-0.145-0.091-0.26,0.035-0.156,0.171l3.974,5.174c0.042,0.059,0.085,0.117,0.134,0.174l0.065,0.085
	c0.012,0.015,0.029,0.017,0.043,0.028c0.037,0.038,0.069,0.078,0.108,0.114c0.759,0.691,1.774,0.811,2.267,0.27
	c0.493-0.542,0.278-1.541-0.481-2.232C265.888,26.334,265.845,26.306,265.804,26.273z"/>
<g>
	<path class="st11" d="M385.249,31.084c0-0.35,0.035-0.691,0.087-1.027c-2.196-0.757-3.873-2.628-4.341-4.944
		c-2.74,0.815-4.738,3.35-4.738,6.354c0,3.663,2.969,6.632,6.632,6.632c1.84,0,3.504-0.75,4.706-1.96
		C386.161,34.923,385.249,33.111,385.249,31.084z"/>
	<path class="st12" d="M387.176,26.412c1.201-1.21,2.866-1.96,4.706-1.96c0.757,0,1.481,0.133,2.158,0.366
		c0.052-0.335,0.087-0.677,0.087-1.027c0-3.663-2.969-6.632-6.632-6.632c-3.663,0-6.632,2.969-6.632,6.632
		c0,0.453,0.046,0.895,0.133,1.322c0.6-0.179,1.235-0.278,1.894-0.278C384.525,24.836,386.02,25.431,387.176,26.412z"/>
	<path class="st13" d="M385.337,30.057c0.22-1.411,0.877-2.677,1.839-3.645c-1.156-0.982-2.651-1.576-4.287-1.576
		c-0.659,0-1.293,0.099-1.894,0.278C381.464,27.429,383.141,29.301,385.337,30.057z"/>
	<path class="st14" d="M394.04,24.818c-0.396,2.543-2.231,4.607-4.651,5.327c0.086,0.427,0.133,0.869,0.133,1.322
		c0,1.823-0.736,3.473-1.926,4.672c1.156,0.982,2.651,1.576,4.287,1.576c3.663,0,6.632-2.969,6.632-6.632
		C398.514,28.178,396.641,25.714,394.04,24.818z"/>
	<path class="st15" d="M389.389,30.146c-0.6,0.179-1.235,0.278-1.894,0.278c-0.757,0-1.481-0.133-2.158-0.366
		c-0.052,0.336-0.087,0.677-0.087,1.027c0,2.027,0.912,3.839,2.345,5.056c1.19-1.199,1.926-2.849,1.926-4.672
		C389.521,31.015,389.475,30.573,389.389,30.146z"/>
	<path class="st16" d="M387.176,26.412c1.113,0.945,1.912,2.248,2.213,3.733c2.42-0.72,4.255-2.784,4.651-5.327
		c-0.677-0.233-1.401-0.366-2.158-0.366C390.042,24.452,388.377,25.202,387.176,26.412z"/>
	<path class="st17" d="M387.176,26.412c-0.962,0.969-1.619,2.234-1.839,3.645c0.677,0.233,1.401,0.366,2.158,0.366
		c0.659,0,1.293-0.099,1.894-0.278C389.088,28.66,388.289,27.357,387.176,26.412z"/>
</g>
</svg>