<!-- Generator: Adobe Illustrator 24.0.1, SVG Export Plug-In  -->
<svg version="1.1" xmlns="http://www.w3.org/2000/svg" xmlns:xlink="http://www.w3.org/1999/xlink" x="0px" y="0px"
	 width="991.644px" height="1155.601px" viewBox="0 0 991.644 1155.601" style="enable-background:new 0 0 991.644 1155.601;"
	 xml:space="preserve">
<defs>
</defs>
<g>
	<path d="M973.47,103.427l-0.367-1.412c-7.864-29.992-15.989-60.998-23.302-91.835c-1.46-6.158-2.949-8.758-3.514-9.585
		c-0.667-0.174-2.262-0.483-5.438-0.551c-7.579-0.198-8.676-0.179-11.711,10.764C920.567,41.66,911.225,73.72,902.983,102
		l-0.193,0.653c-7.255,24.917-14.761,50.679-21.896,76.016c-0.554,1.963-1.163,3.866-1.822,5.716
		c-0.249,0.698-0.538,1.351-0.802,2.033c-0.433,1.121-0.857,2.253-1.33,3.33c-0.362,0.823-0.767,1.597-1.152,2.394
		c-0.422,0.874-0.828,1.764-1.278,2.606c-0.463,0.869-0.971,1.688-1.463,2.523c-0.418,0.708-0.822,1.435-1.261,2.119
		c-0.566,0.882-1.174,1.716-1.774,2.557c-0.411,0.574-0.807,1.165-1.233,1.72c-0.67,0.875-1.38,1.701-2.09,2.527
		c-0.398,0.464-0.787,0.942-1.197,1.391c-0.776,0.847-1.587,1.649-2.407,2.442c-0.383,0.372-0.759,0.755-1.152,1.115
		c-0.886,0.811-1.808,1.576-2.741,2.325c-0.359,0.289-0.712,0.585-1.078,0.864c-1.002,0.765-2.039,1.483-3.092,2.18
		c-0.328,0.216-0.651,0.438-0.984,0.646c-1.121,0.708-2.275,1.368-3.452,1.999c-0.29,0.156-0.578,0.314-0.872,0.464
		c-1.241,0.638-2.515,1.229-3.815,1.782c-0.252,0.107-0.504,0.215-0.759,0.319c-1.364,0.559-2.759,1.068-4.185,1.535
		c-0.207,0.067-0.414,0.134-0.622,0.199c-1.487,0.469-3.007,0.889-4.562,1.258c-0.16,0.039-0.322,0.075-0.482,0.111
		c-1.612,0.371-3.257,0.69-4.939,0.954c-0.11,0.018-0.221,0.033-0.332,0.049c-1.739,0.265-3.512,0.475-5.323,0.624
		c-0.055,0.004-0.111,0.007-0.167,0.012c-1.865,0.149-3.768,0.24-5.709,0.266c4.957,19.683,10.091,39.353,15.135,58.6l0.188,0.706
		c6.603,25.182,13.428,51.225,19.745,77.06c3.621,14.786,10.871,24.854,25.023,34.733c36.646,25.581,74.528,53.968,112.731,84.418
		v-308.1C985.808,150.532,979.554,126.618,973.47,103.427z"/>
	<path d="M977.477,559.362c-4.157-11.281-10.653-19.319-14.955-22.78c-40.118-32.283-79.926-62.24-118.313-89.037
		c-26.396-18.42-42.032-40.683-49.209-70.056c-6.201-25.342-12.963-51.138-19.508-76.083l-0.367-1.411
		c-7.864-29.992-15.989-60.999-23.302-91.836c-1.459-6.158-2.948-8.758-3.514-9.584c-0.667-0.174-2.262-0.483-5.438-0.551
		c-7.579-0.198-8.676-0.179-11.711,10.764c-8.57,30.852-17.913,62.912-26.154,91.193l-0.193,0.653
		c-7.255,24.916-14.761,50.679-21.896,76.016c-8.672,30.776-30.437,47.637-62.072,48.06c4.957,19.683,10.091,39.353,15.135,58.6
		l0.188,0.706c6.603,25.183,13.427,51.225,19.745,77.06c3.62,14.786,10.87,24.854,25.022,34.733
		c39.49,27.565,80.41,58.359,121.625,91.517c11.1,8.936,21.006,21.802,28.292,36.373c2.054,4.107,3.935,8.329,5.532,12.663
		c0.059,0.159,0.117,0.323,0.176,0.482h-69.551c-0.873-0.899-1.705-1.669-2.465-2.281c-40.118-32.283-79.926-62.24-118.313-89.037
		c-26.396-18.42-42.032-40.683-49.209-70.056c-6.201-25.342-12.963-51.138-19.508-76.083l-0.367-1.411
		c-7.864-29.992-15.989-60.999-23.302-91.836c-1.459-6.158-2.948-8.758-3.514-9.584c-0.667-0.174-2.262-0.483-5.438-0.551
		c-7.579-0.198-8.676-0.179-11.711,10.764c-8.57,30.852-17.913,62.912-26.154,91.193l-0.193,0.652
		c-7.255,24.916-14.761,50.679-21.896,76.016c-9.048,32.113-32.321,49.127-66.223,48.068c-21.852-0.744-49.872-10.416-59.345-52.283
		c-5.028-22.203-10.363-44.691-15.656-66.803c-1.444-6.034-2.887-12.054-4.316-18.014l-0.121-0.518
		c-3.266-13.595-6.784-28.247-10.339-43.276c-2.653-11.217-5.327-22.639-7.936-34.02c-1.556-6.796-2.716-9.962-3.451-11.431
		c-0.474-0.082-1.16-0.165-2.098-0.208c-15.742-0.667-16.772,1.929-19.532,9.773c-0.138,0.392-0.277,0.779-0.415,1.17
		c-9.836,27.943-19.806,55.594-29.852,82.861c-13.322,36.157-26.779,71.626-40.263,106.03c-9.16,23.384-21.509,46.474-36.701,68.616
		c-29.73,43.317-64.396,45.575-88.21,39.852c-24.418-5.849-54.923-24.061-61.409-77.577c-6.883-56.682-11.673-103.784-15.08-148.237
		c-0.542-7.042,0.391-13.63,1.885-19.566c-6.661,2.429-13.617,4.125-20.859,5.174c-0.354,0.051-0.712,0.094-1.068,0.143
		c-1.294,0.175-2.637,0.242-3.948,0.379v272.082v4.81v413.951h991.644V741.65v-4.81V599.09v-0.002
		c-2.948-8.533-5.834-16.729-8.696-24.688C981.123,569.327,979.302,564.306,977.477,559.362z"/>
	<path d="M229.557,152.317l17.623,31.474c0,0,0,0,0,0c3.446-0.365,6.688-0.536,9.521-0.67c2.789-0.13,5.65-0.271,7.352-0.537
		l44.458-7.096l-10.208,43.902c-0.759,3.277-1.499,6.564-2.238,9.846c-1.735,7.724-3.528,15.719-5.631,23.776
		c-1.417,5.414-3.272,10.276-4.911,14.568c-1.102,2.885-2.735,7.173-3.05,9.039c1.519,19.774,3.34,40.188,5.493,61.761
		c9.021-2.326,19.056-3.301,30.168-2.812c28.962,1.268,44.04,16.123,52.307,31.254c20.623-52.919,41.149-108.249,61.181-164.751
		c-0.008-0.075-0.017-0.147-0.025-0.222c-2.387-20.714-4.473-40.166-6.317-58.798c-0.161-1.627-0.325-3.267-0.482-4.881
		c-0.311-3.193-0.61-6.359-0.906-9.505c-0.234-2.489-0.464-4.968-0.689-7.429c-0.239-2.616-0.477-5.231-0.705-7.819
		c-0.28-3.164-0.55-6.299-0.816-9.424c-0.169-1.992-0.344-4-0.507-5.978c-0.426-5.153-0.837-10.271-1.227-15.342
		c-0.542-7.042,0.392-13.631,1.885-19.566c-16.091,5.868-33.81,7.69-53.482,5.568c-7.666-0.831-13.771-0.15-28.092,16.376
		c-12.872,14.858-31.234,27.309-56.131,38.063c-14.332,6.201-29.156,8.715-42.24,10.938c-4.49,0.759-8.797,1.484-12.968,2.344
		c-0.053,2.852,0.16,6.704,0.319,9.57C229.359,148.083,229.475,150.209,229.557,152.317z"/>
	<path d="M596.576,274.477c6.636,27.667,13.5,56.271,19.904,84.576c0.542,2.388,1.063,3.992,1.46,5.022
		c0.237,0.019,0.498,0.029,0.792,0.043l1.155,0.019c1.614,0,2.678-0.125,3.311-0.237c0.329-0.643,0.827-1.803,1.358-3.697
		c7.396-26.25,15.284-53.313,22.239-77.19c8.662-29.716,17.58-60.331,25.946-90.453c12.668-45.609,44.618-55.184,69.186-55.184
		l2.093,0.024c0.939,0.021,1.832,0.106,2.753,0.152c-3.795-16.101-7.641-32.161-11.42-47.916l-0.121-0.517
		c-5.704-23.742-12.171-50.665-18.275-77.297c-1.556-6.796-2.716-9.962-3.451-11.431c-0.474-0.082-1.16-0.164-2.098-0.208
		c-15.743-0.667-16.772,1.929-19.532,9.773c-23.007,65.406-46.734,129.348-70.529,190.062c-1.724,4.399-3.597,8.785-5.544,13.159
		c-0.309,0.694-0.611,1.39-0.927,2.084c-1.986,4.38-4.083,8.743-6.288,13.087c-0.166,0.326-0.337,0.651-0.505,0.978
		c-4.763,9.289-10.006,18.486-15.73,27.549c1.336,5.575,2.633,10.979,3.856,16.07L596.576,274.477z"/>
	<path d="M394.374,454.854c1.335,5.576,2.633,10.979,3.856,16.07l0.368,1.532c6.636,27.667,13.5,56.271,19.904,84.576
		c0.542,2.388,1.063,3.992,1.46,5.021c0.237,0.02,0.498,0.029,0.792,0.044l1.155,0.019c1.614,0,2.678-0.125,3.311-0.237
		c0.329-0.643,0.827-1.803,1.358-3.697c7.396-26.251,15.284-53.313,22.239-77.19c8.661-29.716,17.579-60.332,25.946-90.454
		c12.668-45.608,44.618-55.184,69.186-55.184l2.093,0.024c0.939,0.021,1.832,0.105,2.753,0.151
		c-2.36-10.014-4.736-19.981-7.107-29.899c-1.441-6.029-2.884-12.06-4.312-18.016l-0.121-0.518
		c-0.768-3.197-1.552-6.461-2.345-9.765c-0.12-0.501-0.241-1.006-0.362-1.51c-2.47-10.294-5.041-21.042-7.632-32.001
		c-1.285-5.433-2.575-10.916-3.86-16.417c-0.102-0.437-0.203-0.872-0.305-1.31c-1.265-5.425-2.527-10.863-3.771-16.293
		c-1.556-6.796-2.716-9.962-3.451-11.431c-0.474-0.082-1.16-0.165-2.098-0.208c-15.742-0.667-16.772,1.929-19.532,9.773
		c-0.138,0.392-0.277,0.779-0.415,1.171c-1.922,5.46-3.871,10.853-5.802,16.289c-2.997,8.433-5.982,16.893-9,25.266
		c-4.993,13.856-10.011,27.629-15.05,41.305c-13.322,36.158-26.78,71.626-40.264,106.03
		C415.818,417.274,406.066,436.343,394.374,454.854z"/>
	<path d="M31.579,350.295l17.623,31.474c0,0,0,0,0.001,0c3.445-0.365,6.687-0.537,9.521-0.67c2.789-0.131,5.65-0.271,7.352-0.537
		l44.458-7.096l-10.208,43.902c-0.759,3.277-1.499,6.564-2.238,9.846c-1.735,7.724-3.528,15.719-5.631,23.776
		c-1.417,5.414-3.272,10.276-4.911,14.568c-1.102,2.886-2.735,7.173-3.05,9.039c3.326,43.303,8.019,89.38,14.762,144.97
		c2.779,22.906,10.058,24.65,15.375,25.922c4.37,1.054,11.707,2.803,24.061-15.201c12.586-18.343,22.766-37.334,30.248-56.436
		c21.801-55.636,43.542-114.02,64.71-173.736c-5.094-44.192-8.871-82.778-11.683-119.466c-0.541-7.042,0.392-13.63,1.885-19.566
		c-6.661,2.429-13.617,4.125-20.859,5.174c-0.354,0.051-0.713,0.094-1.068,0.143c-3.15,0.425-6.344,0.754-9.61,0.923
		c-0.031,0.001-0.063,0.005-0.094,0.007c-3.188,0.162-6.445,0.176-9.747,0.095c-0.696-0.018-1.396-0.043-2.097-0.071
		c-3.286-0.13-6.607-0.335-10.008-0.702c-7.666-0.832-13.771-0.15-28.092,16.376c-12.872,14.858-31.234,27.309-56.131,38.063
		c-14.332,6.201-29.156,8.714-42.24,10.938c-4.49,0.759-8.797,1.484-12.968,2.344c-0.053,2.852,0.16,6.704,0.319,9.57
		C31.38,346.061,31.497,348.188,31.579,350.295z"/>
</g>
</svg>