
<!-- Generator: Adobe Illustrator 24.0.1, SVG Export Plug-In  -->
<svg version="1.1" xmlns="http://www.w3.org/2000/svg" xmlns:xlink="http://www.w3.org/1999/xlink" x="0px" y="0px" width="2000px"
	 height="2213.286px" viewBox="0 0 2000 2213.286" style="enable-background:new 0 0 2000 2213.286;" xml:space="preserve">
<defs>
</defs>
<path d="M1778.504,41.366c-72.219,1.008-142.429,38.763-183.543,96.441c-0.587-1.227-1.339-2.394-2.282-3.466
	c-30.393,0.042-61.471,0.194-90.125,10.082c-28.654,9.887-54.924,31.542-61.422,60.511
	c-89.318,1.311-172.487,71.193-187.069,157.184c-63.621-67.295-171.452-84.454-260.014-54.205
	c-52.869,18.058-100.305,50.872-155.093,62.249c1.93-28.49-21.001-56.529-49.901-61.014c-28.899-4.484-59.615,15.229-66.839,42.897
	c-11.787-37.348-29.302-75.526-62.431-97.485s-85.383-20.029-106.808,12.987c-6.866-32.153-13.732-64.306-20.599-96.459
	c-6.287,5.642-12.574,11.283-18.862,16.925c-11.133-32.529-24.972-64.176-41.335-94.528c-5.253-9.743-11.734-20.16-22.48-23.515
	c-10.543-3.292-21.825,1.278-31.754,6.052c-35.504,17.071-69.066,37.985-99.871,62.235
	c-46.916-46.165-118.518-66.991-183.682-53.426C77.793,96.615,27.625,134.026,0,183.513v2029.773h2000V0
	c-68.522,0.615-136.75,21.625-193.128,59.651C1809.036,47.138,1791.508,41.185,1778.504,41.366z"/>
</svg>