<!-- Generator: Adobe Illustrator 24.0.1, SVG Export Plug-In  -->
<svg version="1.1" xmlns="http://www.w3.org/2000/svg" xmlns:xlink="http://www.w3.org/1999/xlink" x="0px" y="0px"
	 width="557.513px" height="82.096px" viewBox="0 0 557.513 82.096" style="enable-background:new 0 0 557.513 82.096;"
	 xml:space="preserve">
<defs>
</defs>
<g>
	<g>
		<g>
			<g>
				<path d="M289.328,7.905c0-3.643,2.981-6.624,6.624-6.624h12.714c3.643,0,4.452,2.041,1.797,4.536l-1.304,1.225
					c-2.655,2.495-4.827,7.517-4.827,11.16v41.324c0,3.643-2.981,6.624-6.624,6.624h-1.756c-3.643,0-6.624-1.026-6.624-2.28
					s-1.539-3.686-3.42-5.405c-1.881-1.719-4.827-1.719-6.546,0c-1.719,1.719-3.126,4.151-3.126,5.405s-2.981,2.28-6.624,2.28
					h-1.683c-3.643,0-6.624-2.981-6.624-6.624V7.905c0-3.643,2.981-6.624,6.624-6.624h1.683c3.643,0,6.624,2.981,6.624,6.624v25.806
					c0,3.643,1.407,5.068,3.126,3.167s4.665-1.901,6.546,0c1.881,1.901,3.42,0.476,3.42-3.167V7.905z"/>
			</g>
			<g>
				<path d="M314.677,5.964c2.559-2.576,7.623-4.684,11.254-4.684h29.969c3.631,0,4.437,2.035,1.792,4.522l-1.374,1.292
					c-2.645,2.487-4.81,7.492-4.81,11.123v30.557c0,3.631-2.115,8.688-4.7,11.238l-1.523,1.502c-2.585,2.55-7.67,4.636-11.301,4.636
					h-8.053c-3.631,0-8.709-2.093-11.286-4.652l-1.48-1.47c-2.576-2.559-4.684-7.623-4.684-11.253V18.804
					c0-3.631,2.094-8.709,4.652-11.285L314.677,5.964z M335.418,49.842c0.625-0.464,1.136-3.814,1.136-7.445V25.181
					c0-3.631-0.511-7.113-1.136-7.738c-0.625-0.625-3.066-1.136-5.424-1.136s-4.799,0.511-5.424,1.136
					c-0.625,0.625-1.136,4.107-1.136,7.738v17.216c0,3.631,0.511,6.981,1.136,7.445c0.625,0.464,3.066,0.843,5.424,0.843
					S334.793,50.305,335.418,49.842z"/>
			</g>
			<g>
				<path d="M385.885,7.882c0-3.631,2.971-6.602,6.602-6.602h12.744c3.631,0,4.437,2.035,1.792,4.521l-1.375,1.292
					c-2.646,2.487-4.81,7.492-4.81,11.123v41.331c0,3.631-2.971,6.602-6.602,6.602h-1.75c-3.631,0-6.602-2.971-6.602-6.602v-13.11
					c0-3.631-2.136-8.666-4.747-11.189l-3.627-3.505c-2.611-2.523-4.747-1.617-4.747,2.014v25.791c0,3.631-2.971,6.602-6.602,6.602
					h-1.75c-3.631,0-6.602-2.971-6.602-6.602V7.882c0-3.631,2.971-6.602,6.602-6.602h1.75c3.631,0,6.602,0.891,6.602,1.979
					s2.083,4.097,4.629,6.686l3.863,3.927c2.546,2.588,4.629,1.736,4.629-1.895V7.882z"/>
			</g>
			<g>
				<path d="M407.362,7.882c0-3.631,2.971-6.602,6.602-6.602h40.671c3.631,0,4.494,2.094,1.918,4.652l-1.554,1.544
					c-2.576,2.559-4.684,7.623-4.684,11.254v29.823c0,3.631-2.115,8.688-4.7,11.238l-1.522,1.502
					c-2.585,2.55-7.67,4.636-11.301,4.636h-18.829c-3.631,0-6.602-2.971-6.602-6.602V7.882z M427.739,50.538
					c2.983,0,5.919-0.396,6.524-0.879s1.1-3.85,1.1-7.481V25.108c0-3.631-0.495-7.113-1.1-7.738s-3.54-1.136-6.524-1.136
					s-5.424,2.971-5.424,6.602v21.101C422.315,47.567,424.756,50.538,427.739,50.538z"/>
			</g>
			<g>
				<path d="M499.133,35.768c0,1.27-2.971,2.309-6.602,2.309h-14.65c-3.631,0-6.602,2.82-6.602,6.267
					c0,3.447,2.971,6.267,6.602,6.267h25.499c3.631,0,4.494,2.093,1.918,4.652l-1.481,1.471c-2.576,2.559-4.684,5.674-4.684,6.924
					c0,1.25-2.971,2.272-6.602,2.272h-29.457c-3.631,0-6.602-2.971-6.602-6.602V8.176c0-3.631,2.971-6.602,6.602-6.602h40.305
					c3.631,0,4.443,2.041,1.806,4.536l-1.257,1.189c-2.638,2.495-4.796,5.575-4.796,6.845s-2.971,2.309-6.602,2.309h-14.65
					c-3.631,0-6.602,1.402-6.602,3.115c0,1.713,2.971,3.115,6.602,3.115h25.499c3.631,0,4.494,2.093,1.918,4.652l-1.481,1.471
					C501.241,31.366,499.133,34.498,499.133,35.768z"/>
			</g>
			<g>
				<path d="M506.58,7.933c0-3.658,2.993-6.652,6.652-6.652h40.906c3.658,0,4.47,2.05,1.804,4.555l-1.31,1.23
					c-2.666,2.505-4.848,7.548-4.848,11.206v2.354c0,3.658-1.313,7.815-2.917,9.237s-1.604,3.898,0,5.502
					c1.604,1.604,2.917,5.91,2.917,9.569v14.835c0,3.658-2.993,6.652-6.652,6.652h-1.763c-3.658,0-6.652-2.993-6.652-6.652v-8.483
					c0-3.658-1.014-7.582-2.253-8.72c-1.239-1.137-4.197-2.068-6.573-2.068c-2.376,0-4.32,2.993-4.32,6.652v12.62
					c0,3.658-2.993,6.652-6.652,6.652h-1.69c-3.658,0-6.652-2.993-6.652-6.652V7.933z M525.894,24.914
					c2.376,0,5.6-1.147,7.164-2.548s2.079-3.329,1.145-4.284c-0.934-0.955-4.158-1.735-7.164-1.735s-5.465,1.928-5.465,4.284
					S523.517,24.914,525.894,24.914z"/>
			</g>
		</g>
		<g>
			<g>
				<path d="M51.772,4.253C51.789,1.914,49.889,0,47.55,0h-1.153c-2.339,0-4.267,1.914-4.284,4.253l-0.068,9.426
					c-0.017,2.339-1.522,4.253-3.344,4.253s-3.306-1.914-3.298-4.253l0.033-9.426C35.444,1.914,33.537,0,31.198,0h-0.849
					c-2.339,0-4.26,1.914-4.268,4.253l-0.033,9.426c-0.008,2.339-1.399,4.253-3.09,4.253s-3.059-1.914-3.039-4.253l0.06-7.219
					c0.02-2.339-1.879-4.253-4.218-4.253H14c-2.339,0-4.261,1.914-4.271,4.253l-0.03,7.219c-0.01,2.339-1.932,4.253-4.271,4.253
					H4.253C1.914,17.932,0,19.254,0,20.87s1.914,2.938,4.253,2.938H5.33c2.339,0,4.243,1.914,4.231,4.253L9.419,54.494
					c-0.012,2.339-0.024,4.253-0.025,4.253c-0.001,0-0.002,0.154-0.002,0.342s-0.004,1.004-0.008,1.813
					c-0.004,0.809-0.004,1.471,0,1.471s0.008,1.054,0.008,2.342c0,1.288,1.914,2.342,4.253,2.342h43.948
					c2.339,0,4.253-1.87,4.253-4.155c0-2.285-1.914-4.155-4.253-4.155H23.853c-2.339,0-4.24-1.914-4.223-4.253l0.19-26.432
					c0.017-2.339,1.4-4.253,3.073-4.253c1.673,0,3.034,1.914,3.024,4.253l-0.092,21.386c-0.01,2.339,1.896,4.253,4.235,4.253h17.125
					c2.339,0,4.254-0.058,4.254-0.129c0-0.071,0.005-0.129,0.011-0.129s0.01-0.661,0.01-1.469c0-0.808,0.013-3.382,0.029-5.722
					l0.124-18.192c0.016-2.339,1.943-4.253,4.282-4.253h1.001c2.339,0,4.41,0,4.602,0c0.192,0,0.348-1.322,0.348-2.938
					s-1.914-2.938-4.253-2.938h-1.667c-2.339,0-4.239-1.914-4.223-4.253L51.772,4.253z M41.812,43.315
					c-0.021,2.339-1.511,4.253-3.312,4.253c-1.801,0-3.263-1.914-3.249-4.253l0.092-15.253c0.014-2.339,1.514-4.253,3.334-4.253
					c1.82,0,3.291,1.914,3.271,4.253L41.812,43.315z"/>
			</g>
			<g>
				<path d="M111.047,34.848c-1.896-1.505-1.467-2.736,0.954-2.736h2.924c2.421,0,4.424-1.98,4.452-4.401l0.258-22.209
					c0.028-2.42-1.929-4.401-4.35-4.401H74.193c-2.421,0-4.429,1.98-4.463,4.401l-0.315,22.209c-0.034,2.42,1.918,4.401,4.339,4.401
					h1.823c2.421,0,2.875,1.262,1.009,2.804l-10.449,8.637c-1.866,1.542-1.412,2.804,1.009,2.804h5.286
					c2.421,0,5.289-0.815,6.375-1.81s1.844,0.155,1.686,2.558s-1.562,5.885-3.118,7.739l-7.421,8.841
					c-1.556,1.854-0.849,3.371,1.572,3.371h4.026c2.421,0,5.611-1.568,7.089-3.485l4.944-6.41c1.478-1.917,2.8-5.462,2.936-7.879
					l0.246-4.356c0.137-2.417-1.522-4.394-3.687-4.394c-2.164,0-2.475-1.338-0.69-2.974l2.699-2.474
					c1.784-1.635,4.289-2.974,5.566-2.974c1.277,0,3.801,1.317,5.609,2.926l2.888,2.57c1.808,1.609,1.553,2.926-0.568,2.926
					s-3.859,1.98-3.864,4.401l-0.03,17.722c-0.004,2.421,1.973,4.401,4.393,4.401h1.507c2.421,0,4.406-1.98,4.412-4.401l0.037-15.36
					c0.006-2.421,0.889-3.622,1.963-2.67s3.933,1.731,6.354,1.731h3.79c2.421,0,2.85-1.231,0.954-2.736L111.047,34.848z
					 M89.012,24.564c-0.044,2.42-2.06,4.4-4.481,4.4h-0.485c-2.421,0-4.38-1.98-4.353-4.401l0.022-2.06
					c0.026-2.42,2.028-4.401,4.449-4.401h0.563c2.421,0,4.365,1.98,4.321,4.4L89.012,24.564z M89.212,10.396
					c-0.021,2.42-2.018,4.401-4.439,4.401H84.21c-2.421,0-4.369-1.98-4.33-4.4l0.026-1.588c0.039-2.42,2.051-4.4,4.472-4.4h0.485
					c2.421,0,4.384,1.98,4.363,4.401L89.212,10.396z M99.142,8.808c0.021-2.42,2.018-4.401,4.439-4.401h1.35
					c2.421,0,4.369,1.98,4.33,4.4l-0.026,1.588c-0.039,2.42-2.051,4.4-4.472,4.4h-1.272c-2.421,0-4.384-1.98-4.363-4.401
					L99.142,8.808z M103.25,28.964c-2.421,0-4.365-1.98-4.322-4.4l0.037-2.061c0.044-2.42,2.06-4.4,4.48-4.4h1.272
					c2.421,0,4.365,1.98,4.322,4.4l-0.037,2.061c-0.044,2.42-2.06,4.4-4.48,4.4H103.25z"/>
			</g>
		</g>
		<g>
			<g>
				<path d="M170.897,45.059v-7.41h7.41v7.41H170.897z M178.306,37.649v-7.41h22.23v7.41H178.306z M185.717,59.879v-7.41h14.819
					v7.41H185.717z M200.536,52.469v-14.82h7.41v14.82H200.536z"/>
				<path d="M215.343,22.83v-7.41h7.41v7.41H215.343z M215.343,52.469v-14.82h7.41v14.82H215.343z M230.163,37.649h-7.41V22.83
					h14.82v7.41h-7.41V37.649z M222.753,59.879v-7.41h22.23v7.41H222.753z M237.573,15.419h14.82v7.41h-14.82V15.419z
					 M244.982,45.059h7.41v7.41h-7.41V45.059z"/>
				<g>
					<rect x="141.476" y="37.649" width="7.41" height="7.41"/>
					<g>
						<polygon points="163.706,15.419 163.706,8.01 156.296,8.01 156.296,15.419 126.656,15.419 126.656,22.83 156.296,22.83 
							156.296,30.239 148.886,30.239 148.886,37.649 156.296,37.649 156.296,45.06 148.886,45.06 148.886,52.469 141.476,52.469 
							141.476,59.879 156.296,59.879 156.296,52.469 163.706,52.469 163.706,22.83 163.706,15.42 						"/>
						<polygon points="178.525,8.01 171.116,8.01 171.116,15.419 171.116,22.83 178.525,22.83 						"/>
					</g>
				</g>
			</g>
			<rect x="182.012" y="8.01" width="7.41" height="14.82"/>
		</g>
	</g>
	<g>
		<path d="M361.225,72.863c-0.251,0-0.391,0.125-0.391,0.377v1.994c0,0.99-0.725,1.13-1.213,1.13c-0.921,0-1.255-0.446-1.255-1.13
			v-2.873c0-1.855,1.353-1.897,1.979-1.897h6.681c1.061,0,2.315,0,2.315,1.799c0,0.363-0.042,3.473-1.437,5.844
			c-1.353,2.287-3.724,3.696-4.491,3.696c-0.78,0-1.339-0.697-1.339-1.339c0-0.6,0.293-0.753,1.088-1.213
			c3.528-2.008,3.57-5.704,3.57-5.955c0-0.335-0.027-0.432-0.418-0.432H361.225z"/>
		<path d="M399.491,74.3c0,0.823-1.995,3.361-4.38,5.035c-2.343,1.646-4.937,2.385-5.662,2.385c-0.851,0-1.297-0.725-1.297-1.423
			c0-0.879,0.558-1.018,1.297-1.199c2.943-0.711,5.523-2.482,7.309-4.937c0.669-0.92,0.822-1.13,1.339-1.13
			C398.626,73.031,399.491,73.561,399.491,74.3z M391.402,71.162c1.311,0.614,1.826,0.865,1.826,1.632
			c0,0.669-0.516,1.381-1.213,1.381c-0.251,0-0.613-0.195-1.339-0.558c-0.321-0.167-1.785-0.823-2.05-1.018
			c-0.279-0.195-0.433-0.446-0.433-0.809c0-0.586,0.446-1.311,1.241-1.311C389.924,70.479,391.276,71.106,391.402,71.162z"/>
		<path d="M424.411,70.479c0.823,0,1.019,0.014,1.674,0.725c0.265,0.307,1.381,1.534,1.381,2.441c0,0.586-0.795,3.515-3.25,5.858
			c-1.674,1.59-3.752,2.594-4.323,2.594c-0.906,0-1.325-0.837-1.325-1.297c0-0.656,0.433-0.865,1.27-1.269
			c0.613-0.307,1.91-0.962,2.956-2.106c-0.976-0.711-2.008-1.367-3.18-2.05c-0.725,0.697-1.073,0.851-1.45,0.851
			c-0.684,0-1.297-0.641-1.297-1.297c0-0.405,0.209-0.6,0.404-0.767c0.795-0.697,1.506-1.367,2.398-2.817
			c0.488-0.795,0.823-0.865,1.8-0.865H424.411z M422.319,72.808c-0.433,0-0.586,0.028-0.711,0.153
			c-0.084,0.084-0.433,0.572-0.503,0.683c1.549,0.809,2.093,1.158,3.11,1.827c0.572-1.004,0.921-2.148,0.921-2.413
			c0-0.251-0.224-0.251-0.446-0.251H422.319z M428.023,71.343c0,0.363-0.321,0.614-0.628,0.614c-0.293,0-0.32-0.07-0.767-0.809
			c-0.209-0.335-0.237-0.377-0.865-1.199c-0.153-0.209-0.153-0.307-0.153-0.376c0-0.432,0.461-0.669,0.753-0.586
			C426.81,69.098,428.023,70.981,428.023,71.343z M430.031,71.19c0,0.377-0.32,0.6-0.627,0.6c-0.335,0-0.419-0.181-0.614-0.572
			c-0.307-0.586-0.558-0.948-0.906-1.436c-0.084-0.126-0.182-0.265-0.182-0.418c0-0.432,0.475-0.683,0.781-0.586
			C428.902,68.903,430.031,70.813,430.031,71.19z"/>
		<path d="M457.461,74.635c0.321,0,1.298,0,1.298,1.186c0,1.199-0.949,1.199-1.298,1.199h-9.79c-0.321,0-1.297,0-1.297-1.158
			c0-1.13,0.795-1.227,1.297-1.227H457.461z"/>
	</g>
</g>
</svg>